<svg xmlns="http://www.w3.org/2000/svg" viewBox="0 0 32 32" width="32" height="32">
  <defs>
    <linearGradient id="brainGrad" x1="0%" y1="0%" x2="100%" y2="100%">
      <stop offset="0%" style="stop-color:#06b6d4"/>
      <stop offset="100%" style="stop-color:#8b5cf6"/>
    </linearGradient>
    <filter id="glow">
      <feGaussianBlur stdDeviation="2" result="coloredBlur"/>
      <feMerge> 
        <feMergeNode in="coloredBlur"/>
        <feMergeNode in="SourceGraphic"/>
      </feMerge>
    </filter>
  </defs>
  
  <rect width="32" height="32" fill="#000000" rx="4"/>
  
  <!-- Neural network nodes -->
  <circle cx="8" cy="12" r="1.5" fill="url(#brainGrad)" opacity="0.8"/>
  <circle cx="16" cy="8" r="1.5" fill="url(#brainGrad)" opacity="0.9"/>
  <circle cx="24" cy="12" r="1.5" fill="url(#brainGrad)" opacity="0.8"/>
  <circle cx="12" cy="20" r="1.5" fill="url(#brainGrad)" opacity="0.7"/>
  <circle cx="20" cy="20" r="1.5" fill="url(#brainGrad)" opacity="0.7"/>
  <circle cx="16" cy="24" r="1.5" fill="url(#brainGrad)" opacity="0.9"/>
  
  <!-- Connections -->
  <line x1="8" y1="12" x2="16" y2="8" stroke="url(#brainGrad)" stroke-width="0.5" opacity="0.6"/>
  <line x1="16" y1="8" x2="24" y2="12" stroke="url(#brainGrad)" stroke-width="0.5" opacity="0.6"/>
  <line x1="8" y1="12" x2="12" y2="20" stroke="url(#brainGrad)" stroke-width="0.5" opacity="0.5"/>
  <line x1="24" y1="12" x2="20" y2="20" stroke="url(#brainGrad)" stroke-width="0.5" opacity="0.5"/>
  <line x1="12" y1="20" x2="16" y2="24" stroke="url(#brainGrad)" stroke-width="0.5" opacity="0.5"/>
  <line x1="20" y1="20" x2="16" y2="24" stroke="url(#brainGrad)" stroke-width="0.5" opacity="0.5"/>
  <line x1="16" y1="8" x2="16" y2="24" stroke="url(#brainGrad)" stroke-width="0.3" opacity="0.4"/>
  
  <!-- Central core -->
  <circle cx="16" cy="16" r="2" fill="none" stroke="url(#brainGrad)" stroke-width="0.8" filter="url(#glow)"/>
  <circle cx="16" cy="16" r="0.8" fill="url(#brainGrad)" filter="url(#glow)"/>
</svg>